# AST/ASF file generated using VICON BodyLanguage
# -----------------------------------------------
:version 1.10
:name VICON
:units
  mass 1.0
  length 0.45
  angle deg
:documentation
   .ast/.asf automatically generated from VICON data using
   VICON BodyBuilder and BodyLanguage model FoxedUp or BRILLIANT.MOD
:root
   order TX TY TZ RX RY RZ
   axis XYZ
   position 0 0 0  
   orientation 0 0 0 
:bonedata
  begin
     id 1 
     name lhipjoint
     direction 0.573633 -0.743009 0.344793 
     length 2.46257 
     axis 0 0 0  XYZ
  end
  begin
     id 2 
     name lfemur
     direction 0.34202 -0.939693 0  
     length 7.3842  
     axis 0 0 20  XYZ
    dof rx ry rz
    limits (-160.0 20.0)
           (-70.0 70.0)
           (-60.0 70.0)
  end
  begin
     id 3 
     name ltibia
     direction 0.34202 -0.939693 0   
     length 7.50407   
     axis 0 0 20   XYZ
    dof rx
    limits (-10.0 170.0)
  end
  begin
     id 4 
     name lfoot
     direction 0.110749 -0.304281 0.946123   
     length 1.95925   
     axis -90 7.62852e-016 20   XYZ
    dof rx rz
    limits (-45.0 90.0)
           (-70.0 20.0)
  end
  begin
     id 5 
     name ltoes
     direction 1.53554e-011 -4.21843e-011 1   
     length 0.978318   
     axis -90 7.62852e-016 20   XYZ
    dof rx
    limits (-90.0 20.0)
  end
  begin
     id 6 
     name rhipjoint
     direction -0.488109 -0.791693 0.367385   
     length 2.31113  
     axis 0 0 0  XYZ 
  end
  begin
     id 7 
     name rfemur
     direction -0.34202 -0.939693 0   
     length 7.40965   
     axis 0 0 -20   XYZ
    dof rx ry rz
    limits (-160.0 20.0)
           (-70.0 70.0)
           (-70.0 60.0)
  end
  begin
     id 8 
     name rtibia
     direction -0.34202 -0.939693 0   
     length 7.55548   
     axis 0 0 -20   XYZ
    dof rx
    limits (-10.0 170.0)
 end
 begin
     id 9 
     name rfoot
     direction -0.127594 -0.350561 0.927808   
     length 2.07199  
     axis -90 -7.62852e-016 -20   XYZ
    dof rx rz
    limits (-45.0 90.0)
           (-20.0 70.0)
  end
  begin
     id 10 
     name rtoes
     direction -1.53542e-011 -4.21909e-011 1   
     length 1.02667   
     axis -90 -7.62852e-016 -20   XYZ
    dof rx
    limits (-90.0 20.0)
  end
  begin
     id 11 
     name lowerback
     direction -0.0103342 0.997298 -0.0727278   
     length 2.02836   
     axis 0 0 0   XYZ
    dof rx ry rz
    limits (-20.0 45.0)
           (-30.0 30.0)
           (-30.0 30.0)
  end
  begin
     id 12 
     name upperback
     direction 0.0171146 0.999786 -0.011606   
     length 2.03179   
     axis 0 0 0   XYZ
    dof rx ry rz
    limits (-20.0 45.0)
           (-30.0 30.0)
           (-30.0 30.0)
  end
  begin
     id 13 
     name thorax
     direction 0.0216927 0.999513 0.0224343   
     length 2.03882   
     axis 0 0 0   XYZ
    dof rx ry rz
    limits (-20.0 45.0)
           (-30.0 30.0)
           (-30.0 30.0)
  end
  begin
     id 14 
     name lowerneck
     direction 0.000989287 0.993907 0.110221   
     length 1.75428   
     axis 0 0 0   XYZ
    dof rx ry rz
    limits (-20.0 45.0)
           (-30.0 30.0)
           (-30.0 30.0)
  end
  begin
     id 15 
     name upperneck
     direction -0.0172474 0.994813 -0.100253   
     length 1.77058   
     axis 0 0 0   XYZ
    dof rx ry rz
    limits (-20.0 45.0)
           (-30.0 30.0)
           (-30.0 30.0)
  end
  begin
     id 16
     name head
     direction -0.00486455 0.99894 -0.0457663  
     length 1.77427  
     axis 0 0 0   XYZ
    dof rx ry rz
    limits (-20.0 45.0)
           (-30.0 30.0)
           (-30.0 30.0)
  end
  begin
     id 17 
     name lclavicle
     direction 0.927314 0.333734 -0.169441  
     length 3.97584  
     axis 0 0 0   XYZ
    dof ry rz
    limits (-20.0 10.0)
           (0.0 20.0)
  end
  begin
     id 18 
     name lhumerus
     direction 1 -4.48965e-011 -3.25313e-028   
     length 4.76468   
     axis 180 -30 -90   XYZ
    dof rx ry rz
    limits (-60.0 90.0)
           (-90.0 90.0)
           (-90.0 90.0)
  end
  begin
     id 19
     name lradius
     direction 1 -4.48969e-011 -2.8465e-028   
     length 3.52712   
     axis -180 -30 -90   XYZ
    dof rx
    limits (-10.0 170.0)
  end
  begin
     id 20
     name lwrist
     direction 1 -4.4896e-011 -7.78665e-028   
     length 1.76356   
     axis 1.91374e-015 90 90   XYZ
    dof ry
    limits (-180.0 0.0)
 end
  begin
     id 21 
     name lhand
     direction 1 -4.48959e-011 -1.55733e-027   
     length 0.859564   
     axis 9.9371e-016 90 90   XYZ
    dof rx rz
    limits (-90.0 90.0)
           (-45.0 45.0)
  end
  begin
     id 22 
     name lfingers
     direction 1 -4.48965e-011 -3.11466e-027   
     length 0.693002   
     axis 1.98742e-015 90 90   XYZ
    dof rx
    limits (0.0 90.0)
  end
  begin
     id 23
     name lthumb
     direction 0.707107 -6.34948e-011 0.707107   
     length 0.995017   
     axis -90 45 2.85299e-015   XYZ
    dof rx rz
    limits (-45.0 45.0)
           (-45.0 45.0)
  end
  begin
     id 24 
     name rclavicle
     direction -0.899388 0.348209 -0.264294   
     length 3.68366  
     axis 0 0 0   XYZ 
    dof ry rz
    limits (-10.0 20.0)
           (-20.0 0.0)
  end
  begin
     id 25 
     name rhumerus
     direction -1 -4.48965e-011 -3.01536e-027  
     length 4.90577   
     axis 180 30 90   XYZ
    dof rx ry rz
    limits (-90.0 60.0)
           (-90.0 90.0)
           (-90.0 90.0)
  end
  begin
     id 26 
     name rradius
     direction -1 -4.48966e-011 3.93291e-027   
     length 3.42692   
     axis -180 30 90   XYZ
    dof rx
    limits (-10.0 170.0)
  end
  begin
     id 27 
     name rwrist
     direction -1 -4.48969e-011 -7.78665e-028   
     length 1.71346   
     axis 1.91374e-015 -90 -90   XYZ
    dof ry
    limits (-180.0 0.0)
  end
  begin
     id 28
     name rhand
     direction -1 -4.48967e-011 -1.55733e-027   
     length 0.740957   
     axis 9.9371e-016 -90 -90   XYZ
    dof rx rz
    limits (-90.0 90.0)
           (-45.0 45.0)
  end
  begin
     id 29
     name rfingers
     direction -1 -4.48949e-011 -3.11466e-027   
     length 0.597378   
     axis 1.98742e-015 -90 -90   XYZ
    dof rx
    limits (0.0 90.0)
  end
  begin
     id 30
     name rthumb
     direction -0.707107 -6.34931e-011 0.707107   
     length 0.857719   
     axis -90 -45 -2.85299e-015   XYZ
    dof rx rz
    limits (-45.0 45.0)
           (-45.0 45.0)
  end
:hierarchy
  begin
    root lhipjoint rhipjoint lowerback
    lhipjoint lfemur
    lfemur ltibia
    ltibia lfoot
    lfoot ltoes
    rhipjoint rfemur
    rfemur rtibia
    rtibia rfoot
    rfoot rtoes
    lowerback upperback
    upperback thorax
    thorax lowerneck lclavicle rclavicle
    lowerneck upperneck
    upperneck head
    lclavicle lhumerus
    lhumerus lradius
    lradius lwrist
    lwrist lhand lthumb
    lhand lfingers
    rclavicle rhumerus
    rhumerus rradius
    rradius rwrist
    rwrist rhand rthumb
    rhand rfingers
  end

#!OML:ASF E:\I on waltz\AllaLogoMonkeySwing\Project 1\Capture day 1\Session 1\Subject1.ASF
:FULLY-SPECIFIED
:DEGREES
1
root -17.1437 17.749 -30.0033 6.60693 31.6431 -3.80052
lowerback 7.89039 -0.297804 -0.759998
upperback 0.555422 -0.345408 2.61163
thorax -3.83053 -0.132941 3.17614
lowerneck -13.5643 0.705689 -3.7035
upperneck 17.9382 1.34958 2.37551
head 7.72538 0.636621 1.54081
rclavicle 5.46161e-014 -1.35174e-014
rhumerus -29.2784 -9.96832 -82.4813
rradius 26.7988
rwrist -5.73013
rhand -6.76609 -39.8039
rfingers 7.12502
rthumb 19.0958 -68.8865
lclavicle 5.46161e-014 -1.35174e-014
lhumerus -39.5532 18.8956 84.8562
lradius 43.7453
lwrist 1.69132
lhand -4.96298 -9.3837
lfingers 7.12502
lthumb 20.829 19.5182
rfemur -14.5796 -3.83977 26.526
rtibia 31.8753
rfoot -28.998 -3.9142
rtoes 2.62228
lfemur -13.3839 1.05986 -20.2484
ltibia 30.3081
lfoot -24.3527 2.65254
ltoes -23.2285
2
root -17.1113 17.7478 -30.0049 6.39278 31.6404 -4.05129
lowerback 8.06809 -0.28947 -0.463907
upperback 0.64027 -0.304886 2.65666
thorax -3.8457 -0.117437 3.05244
lowerneck -13.5958 0.714889 -3.50462
upperneck 17.9042 1.32875 2.32754
head 7.72214 0.635729 1.48975
rclavicle 7.99114e-014 -4.51241e-014
rhumerus -30.6931 -14.7298 -82.5125
rradius 27.4508
rwrist -0.456274
rhand -6.12317 -39.4125
rfingers 7.12502
rthumb 19.7139 -68.4329
lclavicle 7.99114e-014 -4.51241e-014
lhumerus -39.5786 18.8589 84.7206
lradius 44.049
lwrist 2.08396
lhand -5.5147 -10.0193
lfingers 7.12502
lthumb 20.2988 18.94
rfemur -14.4293 -3.92554 26.6637
rtibia 31.89
rfoot -28.8993 -4.16078
rtoes 1.91014
lfemur -13.3149 0.889087 -20.0854
ltibia 30.5932
lfoot -24.7785 2.60888
ltoes -21.0791
3
root -17.0785 17.7408 -30.0043 6.40876 31.6414 -3.95594
lowerback 8.17911 -0.312506 -0.491096
upperback 0.701716 -0.338908 2.63053
thorax -3.84204 -0.134484 3.04514
lowerneck -13.5554 0.766478 -3.37156
upperneck 17.8014 1.35468 2.39661
head 7.68025 0.664071 1.49153
rclavicle 3.65764e-014 -2.52457e-014
rhumerus -30.6409 -14.0938 -82.8314
rradius 27.4593
rwrist -0.235852
rhand -5.92255 -39.4826
rfingers 7.12502
rthumb 19.9068 -68.483
lclavicle 3.65764e-014 -2.52457e-014
lhumerus -39.659 18.8697 84.5527
lradius 44.1786
lwrist 2.27697
lhand -5.90714 -10.901
lfingers 7.12502
lthumb 19.9216 18.0979
rfemur -14.567 -3.93326 26.461
rtibia 32.3647
rfoot -28.9973 -4.22986
rtoes 2.35462
lfemur -13.2225 0.80557 -20.275
ltibia 30.6471
lfoot -24.9536 2.64369
ltoes -19.8851
4
root -17.0476 17.7269 -30.0016 6.52239 31.6429 -3.6194
lowerback 8.29988 -0.339586 -0.799053
upperback 0.766913 -0.404766 2.59854
thorax -3.83616 -0.163059 3.19447
lowerneck -13.448 0.75114 -3.29746
upperneck 17.7633 1.3297 2.31749
head 7.65066 0.649494 1.44918
rclavicle -2.4202e-014 1.94809e-014
rhumerus -30.5055 -14.0431 -82.9738
rradius 27.3534
rwrist 0.109942
rhand -5.98482 -39.4708
rfingers 7.12502
rthumb 19.8469 -68.4774
lclavicle -2.4202e-014 1.94809e-014
lhumerus -39.7391 18.9791 84.4612
lradius 44.2216
lwrist 2.45118
lhand -6.51344 -11.5717
lfingers 7.12502
lthumb 19.3387 17.4867
rfemur -14.7239 -3.7145 26.036
rtibia 32.8875
rfoot -28.9445 -4.35501
rtoes 3.98406
lfemur -13.1381 0.93797 -20.6931
ltibia 30.7187
lfoot -25.1857 2.39772
ltoes -20.2357
5
root -17.0159 17.7092 -29.9926 6.53873 31.6571 -3.54138
lowerback 8.3187 -0.380329 -0.914583
upperback 0.834946 -0.468997 2.62922
thorax -3.77086 -0.194129 3.2987
lowerneck -13.3626 0.722915 -3.21434
upperneck 17.7679 1.31105 2.11187
head 7.64016 0.626294 1.36513
rclavicle 5.23301e-014 -1.98785e-015
rhumerus -30.2694 -15.6227 -82.2586
rradius 27.6285
rwrist -2.43416
rhand -4.11927 -39.627
rfingers 7.12502
rthumb 21.6394 -68.4378
lclavicle 5.23301e-014 -1.98785e-015
lhumerus -39.7741 19.2556 84.3207
lradius 44.1319
lwrist 2.49255
lhand -7.05075 -11.9764
lfingers 7.12502
lthumb 18.822 17.1329
rfemur -15.0178 -3.57818 25.8787
rtibia 33.6378
rfoot -28.923 -4.60035
rtoes 4.85218
lfemur -13.0358 1.01882 -20.8393
ltibia 30.7268
lfoot -25.4168 2.16725
ltoes -20.3246
6
root -16.9801 17.6889 -29.9808 6.65107 31.6962 -3.48276
lowerback 8.22442 -0.41861 -0.926765
upperback 0.857395 -0.522224 2.62119
thorax -3.69138 -0.221642 3.3014
lowerneck -13.2846 0.690728 -3.11798
upperneck 17.7921 1.27569 1.95155
head 7.63747 0.600379 1.29243
rclavicle -2.66371e-014 1.61016e-014
rhumerus -30.2017 -15.4881 -82.4925
rradius 27.619
rwrist -2.27451
rhand -4.29365 -39.3456
rfingers 7.12502
rthumb 21.4719 -68.1756
lclavicle -2.66371e-014 1.61016e-014
lhumerus -39.7436 19.546 84.1059
lradius 43.8813
lwrist 2.29691
lhand -7.15876 -12.2083
lfingers 7.12502
lthumb 18.7181 16.9111
rfemur -15.5224 -3.61773 25.7384
rtibia 34.595
rfoot -28.8507 -4.78178
rtoes 5.13234
lfemur -13.025 1.13647 -20.9754
ltibia 30.7054
lfoot -25.574 2.23537
ltoes -21.4031
7
root -16.9411 17.6733 -29.9689 6.82706 31.7348 -3.27537
lowerback 8.18279 -0.446472 -1.02141
upperback 0.86869 -0.5706 2.56921
thorax -3.65283 -0.245347 3.30526
lowerneck -13.2291 0.65771 -3.00533
upperneck 17.8701 1.24522 1.74942
head 7.65674 0.573728 1.20456
rclavicle 7.76751e-014 -3.39922e-014
rhumerus -30.2394 -15.6988 -82.4971
rradius 27.7257
rwrist -2.40805
rhand -3.94304 -39.1009
rfingers 7.12502
rthumb 21.8087 -67.8921
lclavicle 7.76751e-014 -3.39922e-014
lhumerus -39.6847 19.546 84.0657
lradius 43.6308
lwrist 2.63004
lhand -7.17141 -12.196
lfingers 7.12502
lthumb 18.706 16.9246
rfemur -16.0891 -3.64225 25.4524
rtibia 35.7647
rfoot -28.7951 -4.86283
rtoes 5.5034
lfemur -12.9858 1.34529 -21.2649
ltibia 30.6627
lfoot -25.7464 2.49373
ltoes -24.5599
8
root -16.9005 17.6562 -29.9544 6.8526 31.7233 -3.14502
lowerback 8.25429 -0.499713 -1.07902
upperback 0.913991 -0.647218 2.56093
thorax -3.64021 -0.283116 3.33838
lowerneck -13.0996 0.712167 -2.88172
upperneck 17.8019 1.34751 1.45562
head 7.61229 0.603021 1.0963
rclavicle 3.78188e-014 -1.98785e-015
rhumerus -30.2789 -15.8384 -82.4795
rradius 27.8159
rwrist -2.46387
rhand -3.77534 -39.0767
rfingers 7.12502
rthumb 21.9697 -67.8491
lclavicle 3.78188e-014 -1.98785e-015
lhumerus -39.671 19.7398 84.0009
lradius 43.329
lwrist 2.49841
lhand -7.07894 -12.1831
lfingers 7.12502
lthumb 18.7949 16.9289
rfemur -16.637 -3.78259 25.2283
rtibia 37.1877
rfoot -28.9131 -4.92725
rtoes 5.19962
lfemur -12.7918 1.59139 -21.4835
ltibia 30.5876
lfoot -25.8582 1.81555
ltoes -21.2766
9
root -16.8587 17.6351 -29.9379 6.88334 31.6297 -2.94677
lowerback 8.36548 -0.522478 -1.1883
upperback 0.976429 -0.689738 2.51711
thorax -3.63387 -0.303578 3.36041
lowerneck -13.0341 0.80014 -2.67219
upperneck 17.8018 1.47095 1.20629
head 7.6017 0.652149 0.991828
rclavicle 7.6383e-014 -5.76476e-015
rhumerus -30.2191 -15.6696 -82.612
rradius 27.7169
rwrist -1.82723
rhand -4.05412 -39.0447
rfingers 7.12502
rthumb 21.702 -67.8483
lclavicle 7.6383e-014 -5.76476e-015
lhumerus -39.6403 19.8952 83.9929
lradius 43.0462
lwrist 2.25769
lhand -7.03612 -11.87
lfingers 7.12502
lthumb 18.8361 17.238
rfemur -17.3235 -3.98819 24.9062
rtibia 38.8688
rfoot -28.8135 -4.98586
rtoes 4.34992
lfemur -12.5031 1.76492 -21.7702
ltibia 30.4643
lfoot -26.054 1.54436
ltoes -20.1196
10
root -16.8147 17.6188 -29.9199 6.94593 31.5164 -2.78837
lowerback 8.45442 -0.523621 -1.26369
upperback 1.02066 -0.701181 2.45572
thorax -3.63663 -0.308984 3.34132
lowerneck -12.9564 0.825798 -2.45814
upperneck 17.7527 1.47648 1.11283
head 7.57399 0.660532 0.925268
rclavicle -3.66758e-014 6.55989e-015
rhumerus -30.164 -15.8073 -82.5684
rradius 27.6573
rwrist -1.56335
rhand -3.9785 -38.8807
rfingers 7.12502
rthumb 21.7746 -67.6758
lclavicle -3.66758e-014 6.55989e-015
lhumerus -39.6019 19.9638 83.9478
lradius 42.7484
lwrist 1.88599
lhand -6.63328 -11.5771
lfingers 7.12502
lthumb 19.2235 17.4928
rfemur -18.2254 -4.19888 24.5987
rtibia 40.7858
rfoot -28.343 -4.83675
rtoes 3.64791
lfemur -12.2117 1.85812 -22.0036
ltibia 30.3084
lfoot -26.2233 1.35733
ltoes -19.7354
11
root -16.7678 17.611 -29.8961 7.00482 31.3971 -2.60278
lowerback 8.58744 -0.525438 -1.38245
upperback 1.0545 -0.717685 2.39431
thorax -3.67389 -0.315711 3.34833
lowerneck -12.9179 0.781984 -2.28325
upperneck 17.7492 1.39368 1.03447
head 7.56946 0.625331 0.861929
rclavicle 4.87022e-015 3.16068e-014
rhumerus -30.1579 -15.9004 -82.5012
rradius 27.5772
rwrist -1.4687
rhand -4.05303 -38.6246
rfingers 7.12502
rthumb 21.703 -67.428
lclavicle 4.87022e-015 3.16068e-014
lhumerus -39.6261 20.1678 83.8196
lradius 42.4215
lwrist 1.30355
lhand -6.02329 -11.6376
lfingers 7.12502
lthumb 19.81 17.3729
rfemur -19.2425 -4.38766 24.2381
rtibia 42.9347
rfoot -27.6304 -4.46909
rtoes 3.7055
lfemur -11.8578 2.01809 -22.2457
ltibia 30.113
lfoot -26.307 0.948977
ltoes -18.6372
12
root -16.7201 17.6052 -29.8681 7.08833 31.2719 -2.22173
lowerback 8.80972 -0.506042 -1.66722
upperback 1.11649 -0.72405 2.30309
thorax -3.73057 -0.315194 3.41842
lowerneck -12.8426 0.745702 -2.18916
upperneck 17.6804 1.33908 0.945632
head 7.5359 0.597569 0.810629
rclavicle 5.17834e-014 -1.59028e-014
rhumerus -30.1741 -16.1321 -82.3677
rradius 27.4587
rwrist -1.02879
rhand -4.17048 -38.4671
rfingers 7.12502
rthumb 21.5902 -67.2835
lclavicle 5.17834e-014 -1.59028e-014
lhumerus -39.6538 20.4525 83.7807
lradius 42.1569
lwrist 0.68532
lhand -5.46088 -11.6689
lfingers 7.12502
lthumb 20.3505 17.2848
rfemur -20.2976 -4.4913 23.6678
rtibia 45.2917
rfoot -26.2889 -3.15632
rtoes 6.60463
lfemur -11.3896 2.15248 -22.6698
ltibia 29.8607
lfoot -26.3396 0.573712
ltoes -17.5201
13
root -16.6739 17.5966 -29.8363 7.21393 31.2016 -1.85019
lowerback 8.95693 -0.52488 -1.97925
upperback 1.19133 -0.783673 2.23295
thorax -3.72722 -0.341686 3.53075
lowerneck -12.7457 0.701303 -2.05421
upperneck 17.6852 1.27566 0.804111
head 7.5234 0.563069 0.734957
rclavicle 2.29099e-014 -1.31198e-014
rhumerus -30.2571 -16.2149 -82.3087
rradius 27.4394
rwrist -0.446319
rhand -4.40477 -38.4997
rfingers 7.12502
rthumb 21.3652 -67.3418
lclavicle 2.29099e-014 -1.31198e-014
lhumerus -39.6921 20.6459 83.8397
lradius 42.0184
lwrist 0.327389
lhand -5.21709 -11.5248
lfingers 7.12502
lthumb 20.5848 17.4037
rfemur -21.5 -4.61255 23.115
rtibia 47.8138
rfoot -25.4328 -2.43104
rtoes 6.15943
lfemur -10.9388 2.35209 -23.0558
ltibia 29.521
lfoot -26.469 0.0883435
ltoes -16.1603
14
root -16.6273 17.5866 -29.798 7.4771 31.1658 -1.37502
lowerback 9.00258 -0.579862 -2.43739
upperback 1.25506 -0.905743 2.15033
thorax -3.67114 -0.398407 3.71853
lowerneck -12.6866 0.763856 -1.87372
upperneck 17.6304 1.36433 0.58604
head 7.49671 0.5971 0.64186
rclavicle -3.2551e-014 -3.97569e-015
rhumerus -30.2815 -16.5818 -81.9595
rradius 27.5739
rwrist -1.45617
rhand -4.0132 -38.5257
rfingers 7.12502
rthumb 21.7413 -67.3247
lclavicle -3.2551e-014 -3.97569e-015
lhumerus -39.7408 20.6768 83.9684
lradius 41.9468
lwrist 0.328829
lhand -5.32306 -11.3881
lfingers 7.12502
lthumb 20.483 17.5514
rfemur -22.9016 -4.7927 22.4691
rtibia 50.4389
rfoot -24.8916 -1.8611
rtoes 5.30043
lfemur -10.5081 2.58193 -23.5136
ltibia 29.0849
lfoot -26.6947 -0.50149
ltoes -14.5854
15
root -16.579 17.5747 -29.748 7.8292 31.1566 -0.695938
lowerback 9.0486 -0.631488 -3.0941
upperback 1.31733 -1.04527 2.0105
thorax -3.611 -0.46211 3.96117
lowerneck -12.6457 0.807344 -1.71902
upperneck 17.5522 1.42236 0.418468
head 7.46566 0.619663 0.566496
rclavicle -7.35503e-015 2.52457e-014
rhumerus -30.4483 -16.5538 -81.8517
rradius 27.84
rwrist -1.59418
rhand -4.27374 -38.3009
rfingers 7.12502
rthumb 21.4911 -67.1287
lclavicle -7.35503e-015 2.52457e-014
lhumerus -39.7872 20.5841 84.1485
lradius 41.8572
lwrist 0.418614
lhand -5.46305 -11.3819
lfingers 7.12502
lthumb 20.3485 17.5721
rfemur -24.3326 -5.0108 21.651
rtibia 53.0522
rfoot -24.4382 -1.72732
rtoes 5.37353
lfemur -10.0018 2.94977 -24.1605
ltibia 28.565
lfoot -26.9458 -0.969297
ltoes -14.4515
